<svg xmlns="http://www.w3.org/2000/svg" viewBox="0 0 108 108" width="100%" height="100%">
  <path d="M18,54 A36,36 0 1,1 90,54 A36,36 0 1,1 18,54 Z" fill="#202837"></path>
  <g transform="translate(54.0 54.0) scale(0.44 0.44) translate(-54.0 -54.0)">
    <path d="M44,16 C35,16 36.5,25 36.5,33 C36.5,43.5 32,49.5 25.5,53 C32,56.5 36.5,62.5 36.5,73 C36.5,81 35,90 44,90" fill="none" stroke="#0CD5B9" stroke-width="7.5" stroke-linecap="round" stroke-linejoin="round"></path>
    <path d="M64,16 C73,16 71.5,25 71.5,33 C71.5,43.5 76,49.5 82.5,53 C76,56.5 71.5,62.5 71.5,73 C71.5,81 73,90 64,90" fill="none" stroke="#0CD5B9" stroke-width="7.5" stroke-linecap="round" stroke-linejoin="round"></path>
    <path d="M48.4,53 a5.6,5.6 0 1 0 11.2,0 a5.6,5.6 0 1 0 -11.2,0 Z" fill="#0CD5B9"></path>
  </g>
</svg>